<?xml version="1.0" encoding="UTF-8" ?>
<svg version="1.1" width="16" height="16" xmlns="http://www.w3.org/2000/svg" shape-rendering="crispEdges">
<rect x="5" y="0" width="6" height="1" fill="#7FBADD" />
<rect x="4" y="1" width="2" height="1" fill="#7FBADD" />
<rect x="6" y="1" width="2" height="14" fill="#7FBADD" opacity="0.705882" />
<rect x="8" y="1" width="1" height="1" fill="#8CBDDD" opacity="0.992157" />
<rect x="9" y="1" width="1" height="1" fill="#A0CAE3" opacity="0.984314" />
<rect x="10" y="1" width="2" height="1" fill="#7FBADD" />
<rect x="3" y="2" width="1" height="1" fill="#7FBADD" />
<rect x="4" y="2" width="2" height="12" fill="#7FBADD" opacity="0.705882" />
<rect x="8" y="2" width="1" height="13" fill="#7FBADD" opacity="0.705882" />
<rect x="9" y="2" width="1" height="1" fill="#8CBDDD" opacity="0.992157" />
<rect x="10" y="2" width="1" height="1" fill="#A0CAE3" opacity="0.996078" />
<rect x="11" y="2" width="1" height="1" fill="#A2CBE4" opacity="0.945098" />
<rect x="12" y="2" width="1" height="1" fill="#7FBADD" />
<rect x="2" y="3" width="1" height="1" fill="#7FBADD" />
<rect x="3" y="3" width="1" height="10" fill="#7FBADD" opacity="0.705882" />
<rect x="9" y="3" width="1" height="12" fill="#7FBADD" opacity="0.705882" />
<rect x="10" y="3" width="1" height="1" fill="#8DBEDD" opacity="0.976471" />
<rect x="11" y="3" width="1" height="1" fill="#8EBFDD" opacity="0.913725" />
<rect x="12" y="3" width="1" height="1" fill="#A2CBE4" opacity="0.945098" />
<rect x="13" y="3" width="1" height="1" fill="#7FBADD" />
<rect x="1" y="4" width="1" height="2" fill="#7FBADD" />
<rect x="2" y="4" width="1" height="8" fill="#7FBADD" opacity="0.705882" />
<rect x="10" y="4" width="2" height="10" fill="#7FBADD" opacity="0.705882" />
<rect x="12" y="4" width="1" height="2" fill="#8EBFDD" opacity="0.913725" />
<rect x="13" y="4" width="1" height="2" fill="#A2CBE4" opacity="0.945098" />
<rect x="14" y="4" width="1" height="2" fill="#7FBADD" />
<rect x="0" y="6" width="1" height="4" fill="#65A0C3" />
<rect x="1" y="6" width="1" height="4" fill="#7FBADD" opacity="0.705882" />
<rect x="12" y="6" width="1" height="7" fill="#7FBADD" opacity="0.705882" />
<rect x="13" y="6" width="1" height="2" fill="#8EBFDD" opacity="0.913725" />
<rect x="14" y="6" width="1" height="3" fill="#A2CBE4" opacity="0.945098" />
<rect x="15" y="6" width="1" height="4" fill="#65A0C3" />
<rect x="13" y="8" width="1" height="2" fill="#84BCDD" opacity="0.992157" />
<rect x="14" y="9" width="1" height="1" fill="#89BFDF" opacity="0.984314" />
<rect x="1" y="10" width="1" height="2" fill="#65A0C3" />
<rect x="13" y="10" width="1" height="2" fill="#7FBADD" opacity="0.705882" />
<rect x="14" y="10" width="1" height="2" fill="#65A0C3" />
<rect x="2" y="12" width="1" height="1" fill="#65A0C3" />
<rect x="13" y="12" width="1" height="1" fill="#65A0C3" />
<rect x="3" y="13" width="1" height="1" fill="#65A0C3" />
<rect x="12" y="13" width="1" height="1" fill="#65A0C3" />
<rect x="4" y="14" width="2" height="1" fill="#65A0C3" />
<rect x="10" y="14" width="2" height="1" fill="#65A0C3" />
<rect x="6" y="15" width="4" height="1" fill="#65A0C3" />
</svg>