<?xml version="1.0" encoding="UTF-8" ?>
<svg version="1.1" width="32" height="32" xmlns="http://www.w3.org/2000/svg" shape-rendering="crispEdges">
<rect x="14" y="0" width="4" height="5" fill="#E67B1C" />
<rect x="13" y="1" width="1" height="4" fill="#E67B1C" />
<rect x="18" y="1" width="1" height="4" fill="#E67B1C" />
<rect x="12" y="5" width="2" height="2" fill="#000000" />
<rect x="14" y="5" width="3" height="5" fill="#E67B1C" />
<rect x="17" y="5" width="2" height="2" fill="#000000" />
<rect x="19" y="5" width="1" height="22" fill="#E67B1C" />
<rect x="11" y="6" width="1" height="22" fill="#E67B1C" />
<rect x="20" y="6" width="1" height="22" fill="#E67B1C" />
<rect x="3" y="7" width="4" height="4" fill="#E67B1C" />
<rect x="10" y="7" width="1" height="12" fill="#E67B1C" />
<rect x="12" y="7" width="2" height="2" fill="#E67B1C" />
<rect x="17" y="7" width="2" height="3" fill="#E67B1C" />
<rect x="21" y="7" width="1" height="12" fill="#E67B1C" />
<rect x="25" y="7" width="4" height="4" fill="#E67B1C" />
<rect x="7" y="8" width="3" height="7" fill="#E67B1C" />
<rect x="23" y="8" width="2" height="8" fill="#E67B1C" />
<rect x="12" y="9" width="1" height="18" fill="#E67B1C" />
<rect x="13" y="9" width="1" height="1" fill="#000000" />
<rect x="22" y="9" width="1" height="9" fill="#E67B1C" />
<rect x="13" y="10" width="1" height="16" fill="#E67B1C" />
<rect x="14" y="10" width="4" height="1" fill="#000000" />
<rect x="18" y="10" width="1" height="16" fill="#E67B1C" />
<rect x="4" y="11" width="3" height="1" fill="#E67B1C" />
<rect x="14" y="11" width="4" height="13" fill="#E67B1C" />
<rect x="25" y="11" width="3" height="1" fill="#E67B1C" />
<rect x="5" y="12" width="2" height="1" fill="#E67B1C" />
<rect x="25" y="12" width="2" height="1" fill="#E67B1C" />
<rect x="6" y="13" width="1" height="1" fill="#E67B1C" />
<rect x="25" y="13" width="1" height="1" fill="#E67B1C" />
<rect x="8" y="15" width="2" height="1" fill="#E67B1C" />
<rect x="9" y="16" width="1" height="1" fill="#E67B1C" />
<rect x="23" y="16" width="1" height="1" fill="#E67B1C" />
<rect x="10" y="20" width="1" height="9" fill="#E67B1C" />
<rect x="21" y="20" width="1" height="9" fill="#E67B1C" />
<rect x="9" y="22" width="1" height="7" fill="#E67B1C" />
<rect x="22" y="22" width="1" height="7" fill="#E67B1C" />
<rect x="8" y="23" width="1" height="6" fill="#E67B1C" />
<rect x="23" y="23" width="1" height="6" fill="#E67B1C" />
<rect x="14" y="24" width="1" height="1" fill="#E67B1C" />
<rect x="17" y="24" width="1" height="1" fill="#E67B1C" />
<rect x="7" y="25" width="1" height="4" fill="#E67B1C" />
<rect x="24" y="25" width="1" height="4" fill="#E67B1C" />
</svg>