<?xml version="1.0" encoding="UTF-8" ?>
<svg version="1.1" width="32" height="32" xmlns="http://www.w3.org/2000/svg" shape-rendering="crispEdges">
<rect x="0" y="0" width="32" height="2" fill="#6358FF" />
<rect x="0" y="2" width="2" height="30" fill="#6358FF" />
<rect x="2" y="2" width="28" height="2" fill="#636EFF" />
<rect x="30" y="2" width="2" height="30" fill="#6358FF" />
<rect x="2" y="4" width="2" height="26" fill="#636EFF" />
<rect x="4" y="4" width="24" height="2" fill="#6382FF" />
<rect x="28" y="4" width="2" height="26" fill="#636EFF" />
<rect x="4" y="6" width="2" height="22" fill="#6382FF" />
<rect x="6" y="6" width="20" height="2" fill="#639DFF" />
<rect x="26" y="6" width="2" height="22" fill="#6382FF" />
<rect x="6" y="8" width="2" height="18" fill="#639DFF" />
<rect x="8" y="8" width="16" height="4" fill="#63AFFF" />
<rect x="24" y="8" width="2" height="18" fill="#639DFF" />
<rect x="8" y="12" width="5" height="1" fill="#63AFFF" />
<rect x="13" y="12" width="4" height="2" fill="#F58414" />
<rect x="17" y="12" width="7" height="1" fill="#63AFFF" />
<rect x="8" y="13" width="4" height="1" fill="#63AFFF" />
<rect x="12" y="13" width="1" height="3" fill="#F58414" />
<rect x="17" y="13" width="1" height="5" fill="#F58414" />
<rect x="18" y="13" width="2" height="1" fill="#63AFFF" />
<rect x="20" y="13" width="1" height="2" fill="#F58414" />
<rect x="21" y="13" width="3" height="11" fill="#63AFFF" />
<rect x="8" y="14" width="3" height="10" fill="#63AFFF" />
<rect x="11" y="14" width="1" height="4" fill="#F58414" />
<rect x="13" y="14" width="1" height="1" fill="#000000" />
<rect x="14" y="14" width="1" height="3" fill="#F58414" />
<rect x="15" y="14" width="1" height="1" fill="#000000" />
<rect x="16" y="14" width="1" height="5" fill="#F58414" />
<rect x="18" y="14" width="1" height="3" fill="#F58414" />
<rect x="19" y="14" width="1" height="1" fill="#63AFFF" />
<rect x="13" y="15" width="1" height="2" fill="#F58414" />
<rect x="15" y="15" width="1" height="1" fill="#F58414" />
<rect x="19" y="15" width="1" height="1" fill="#F58414" />
<rect x="20" y="15" width="1" height="1" fill="#63AFFF" />
<rect x="12" y="16" width="1" height="1" fill="#000000" />
<rect x="15" y="16" width="1" height="1" fill="#000000" />
<rect x="19" y="16" width="1" height="8" fill="#63AFFF" />
<rect x="20" y="16" width="1" height="2" fill="#F58414" />
<rect x="12" y="17" width="1" height="2" fill="#F58414" />
<rect x="13" y="17" width="2" height="1" fill="#000000" />
<rect x="15" y="17" width="1" height="2" fill="#F58414" />
<rect x="18" y="17" width="1" height="7" fill="#63AFFF" />
<rect x="11" y="18" width="1" height="6" fill="#63AFFF" />
<rect x="13" y="18" width="2" height="1" fill="#F58414" />
<rect x="17" y="18" width="1" height="6" fill="#63AFFF" />
<rect x="20" y="18" width="1" height="6" fill="#63AFFF" />
<rect x="12" y="19" width="5" height="5" fill="#63AFFF" />
<rect x="8" y="24" width="16" height="2" fill="#639DFF" />
<rect x="6" y="26" width="20" height="2" fill="#6382FF" />
<rect x="4" y="28" width="24" height="2" fill="#636EFF" />
<rect x="2" y="30" width="28" height="2" fill="#6358FF" />
</svg>