<?xml version="1.0" encoding="UTF-8" ?>
<svg version="1.1" width="32" height="32" xmlns="http://www.w3.org/2000/svg" shape-rendering="crispEdges">
<rect x="0" y="0" width="32" height="2" fill="#6358FF" />
<rect x="0" y="2" width="2" height="30" fill="#6358FF" />
<rect x="2" y="2" width="4" height="1" fill="#636EFF" />
<rect x="6" y="2" width="4" height="2" fill="#F58414" />
<rect x="10" y="2" width="12" height="1" fill="#636EFF" />
<rect x="22" y="2" width="4" height="2" fill="#F58414" />
<rect x="26" y="2" width="4" height="1" fill="#636EFF" />
<rect x="30" y="2" width="2" height="30" fill="#6358FF" />
<rect x="2" y="3" width="1" height="2" fill="#F58414" />
<rect x="3" y="3" width="2" height="1" fill="#636EFF" />
<rect x="5" y="3" width="1" height="5" fill="#F58414" />
<rect x="10" y="3" width="1" height="3" fill="#F58414" />
<rect x="11" y="3" width="10" height="1" fill="#636EFF" />
<rect x="21" y="3" width="1" height="3" fill="#F58414" />
<rect x="26" y="3" width="1" height="5" fill="#F58414" />
<rect x="27" y="3" width="2" height="1" fill="#636EFF" />
<rect x="29" y="3" width="1" height="2" fill="#F58414" />
<rect x="3" y="4" width="1" height="1" fill="#636EFF" />
<rect x="4" y="4" width="1" height="3" fill="#F58414" />
<rect x="6" y="4" width="1" height="5" fill="#F58414" />
<rect x="7" y="4" width="1" height="1" fill="#000000" />
<rect x="8" y="4" width="1" height="3" fill="#F58414" />
<rect x="9" y="4" width="1" height="1" fill="#000000" />
<rect x="11" y="4" width="1" height="4" fill="#F58414" />
<rect x="12" y="4" width="8" height="2" fill="#6382FF" />
<rect x="20" y="4" width="1" height="4" fill="#F58414" />
<rect x="22" y="4" width="1" height="1" fill="#000000" />
<rect x="23" y="4" width="1" height="3" fill="#F58414" />
<rect x="24" y="4" width="1" height="1" fill="#000000" />
<rect x="25" y="4" width="1" height="5" fill="#F58414" />
<rect x="27" y="4" width="1" height="3" fill="#F58414" />
<rect x="28" y="4" width="1" height="1" fill="#636EFF" />
<rect x="2" y="5" width="1" height="1" fill="#636EFF" />
<rect x="3" y="5" width="1" height="1" fill="#F58414" />
<rect x="7" y="5" width="1" height="1" fill="#F58414" />
<rect x="9" y="5" width="1" height="2" fill="#F58414" />
<rect x="22" y="5" width="1" height="2" fill="#F58414" />
<rect x="24" y="5" width="1" height="1" fill="#F58414" />
<rect x="28" y="5" width="1" height="1" fill="#F58414" />
<rect x="29" y="5" width="1" height="1" fill="#636EFF" />
<rect x="2" y="6" width="1" height="2" fill="#F58414" />
<rect x="3" y="6" width="1" height="20" fill="#636EFF" />
<rect x="7" y="6" width="1" height="1" fill="#000000" />
<rect x="10" y="6" width="1" height="1" fill="#000000" />
<rect x="12" y="6" width="8" height="2" fill="#639DFF" />
<rect x="21" y="6" width="1" height="1" fill="#000000" />
<rect x="24" y="6" width="1" height="1" fill="#000000" />
<rect x="28" y="6" width="1" height="20" fill="#636EFF" />
<rect x="29" y="6" width="1" height="2" fill="#F58414" />
<rect x="4" y="7" width="1" height="18" fill="#6382FF" />
<rect x="7" y="7" width="1" height="2" fill="#F58414" />
<rect x="8" y="7" width="2" height="1" fill="#000000" />
<rect x="10" y="7" width="1" height="2" fill="#F58414" />
<rect x="21" y="7" width="1" height="2" fill="#F58414" />
<rect x="22" y="7" width="2" height="1" fill="#000000" />
<rect x="24" y="7" width="1" height="2" fill="#F58414" />
<rect x="27" y="7" width="1" height="18" fill="#6382FF" />
<rect x="2" y="8" width="1" height="16" fill="#636EFF" />
<rect x="5" y="8" width="1" height="16" fill="#6382FF" />
<rect x="8" y="8" width="2" height="1" fill="#F58414" />
<rect x="11" y="8" width="10" height="4" fill="#63AFFF" />
<rect x="22" y="8" width="2" height="1" fill="#F58414" />
<rect x="26" y="8" width="1" height="16" fill="#6382FF" />
<rect x="29" y="8" width="1" height="16" fill="#636EFF" />
<rect x="6" y="9" width="2" height="14" fill="#639DFF" />
<rect x="8" y="9" width="3" height="14" fill="#63AFFF" />
<rect x="21" y="9" width="3" height="14" fill="#63AFFF" />
<rect x="24" y="9" width="2" height="14" fill="#639DFF" />
<rect x="11" y="12" width="2" height="1" fill="#63AFFF" />
<rect x="13" y="12" width="4" height="2" fill="#F58414" />
<rect x="17" y="12" width="4" height="1" fill="#63AFFF" />
<rect x="11" y="13" width="1" height="1" fill="#63AFFF" />
<rect x="12" y="13" width="1" height="3" fill="#F58414" />
<rect x="17" y="13" width="1" height="5" fill="#F58414" />
<rect x="18" y="13" width="2" height="1" fill="#63AFFF" />
<rect x="20" y="13" width="1" height="2" fill="#F58414" />
<rect x="11" y="14" width="1" height="4" fill="#F58414" />
<rect x="13" y="14" width="1" height="1" fill="#000000" />
<rect x="14" y="14" width="1" height="3" fill="#F58414" />
<rect x="15" y="14" width="1" height="1" fill="#000000" />
<rect x="16" y="14" width="1" height="5" fill="#F58414" />
<rect x="18" y="14" width="1" height="3" fill="#F58414" />
<rect x="19" y="14" width="1" height="1" fill="#63AFFF" />
<rect x="13" y="15" width="1" height="2" fill="#F58414" />
<rect x="15" y="15" width="1" height="1" fill="#F58414" />
<rect x="19" y="15" width="1" height="1" fill="#F58414" />
<rect x="20" y="15" width="1" height="1" fill="#63AFFF" />
<rect x="12" y="16" width="1" height="1" fill="#000000" />
<rect x="15" y="16" width="1" height="1" fill="#000000" />
<rect x="19" y="16" width="1" height="8" fill="#63AFFF" />
<rect x="20" y="16" width="1" height="2" fill="#F58414" />
<rect x="12" y="17" width="1" height="2" fill="#F58414" />
<rect x="13" y="17" width="2" height="1" fill="#000000" />
<rect x="15" y="17" width="1" height="2" fill="#F58414" />
<rect x="18" y="17" width="1" height="7" fill="#63AFFF" />
<rect x="11" y="18" width="1" height="6" fill="#63AFFF" />
<rect x="13" y="18" width="2" height="1" fill="#F58414" />
<rect x="17" y="18" width="1" height="6" fill="#63AFFF" />
<rect x="20" y="18" width="1" height="6" fill="#63AFFF" />
<rect x="12" y="19" width="5" height="5" fill="#63AFFF" />
<rect x="6" y="23" width="4" height="2" fill="#F58414" />
<rect x="10" y="23" width="1" height="1" fill="#63AFFF" />
<rect x="21" y="23" width="1" height="1" fill="#63AFFF" />
<rect x="22" y="23" width="4" height="2" fill="#F58414" />
<rect x="2" y="24" width="1" height="2" fill="#F58414" />
<rect x="5" y="24" width="1" height="5" fill="#F58414" />
<rect x="10" y="24" width="1" height="3" fill="#F58414" />
<rect x="11" y="24" width="10" height="1" fill="#639DFF" />
<rect x="21" y="24" width="1" height="3" fill="#F58414" />
<rect x="26" y="24" width="1" height="5" fill="#F58414" />
<rect x="29" y="24" width="1" height="2" fill="#F58414" />
<rect x="4" y="25" width="1" height="3" fill="#F58414" />
<rect x="6" y="25" width="1" height="5" fill="#F58414" />
<rect x="7" y="25" width="1" height="1" fill="#000000" />
<rect x="8" y="25" width="1" height="3" fill="#F58414" />
<rect x="9" y="25" width="1" height="1" fill="#000000" />
<rect x="11" y="25" width="1" height="4" fill="#F58414" />
<rect x="12" y="25" width="8" height="1" fill="#639DFF" />
<rect x="20" y="25" width="1" height="4" fill="#F58414" />
<rect x="22" y="25" width="1" height="1" fill="#000000" />
<rect x="23" y="25" width="1" height="3" fill="#F58414" />
<rect x="24" y="25" width="1" height="1" fill="#000000" />
<rect x="25" y="25" width="1" height="5" fill="#F58414" />
<rect x="27" y="25" width="1" height="3" fill="#F58414" />
<rect x="2" y="26" width="1" height="1" fill="#636EFF" />
<rect x="3" y="26" width="1" height="1" fill="#F58414" />
<rect x="7" y="26" width="1" height="1" fill="#F58414" />
<rect x="9" y="26" width="1" height="2" fill="#F58414" />
<rect x="12" y="26" width="8" height="2" fill="#6382FF" />
<rect x="22" y="26" width="1" height="2" fill="#F58414" />
<rect x="24" y="26" width="1" height="1" fill="#F58414" />
<rect x="28" y="26" width="1" height="1" fill="#F58414" />
<rect x="29" y="26" width="1" height="1" fill="#636EFF" />
<rect x="2" y="27" width="1" height="2" fill="#F58414" />
<rect x="3" y="27" width="1" height="3" fill="#636EFF" />
<rect x="7" y="27" width="1" height="1" fill="#000000" />
<rect x="10" y="27" width="1" height="1" fill="#000000" />
<rect x="21" y="27" width="1" height="1" fill="#000000" />
<rect x="24" y="27" width="1" height="1" fill="#000000" />
<rect x="28" y="27" width="1" height="3" fill="#636EFF" />
<rect x="29" y="27" width="1" height="2" fill="#F58414" />
<rect x="4" y="28" width="1" height="2" fill="#636EFF" />
<rect x="7" y="28" width="1" height="2" fill="#F58414" />
<rect x="8" y="28" width="2" height="1" fill="#000000" />
<rect x="10" y="28" width="1" height="2" fill="#F58414" />
<rect x="12" y="28" width="8" height="2" fill="#636EFF" />
<rect x="21" y="28" width="1" height="2" fill="#F58414" />
<rect x="22" y="28" width="2" height="1" fill="#000000" />
<rect x="24" y="28" width="1" height="2" fill="#F58414" />
<rect x="27" y="28" width="1" height="2" fill="#636EFF" />
<rect x="2" y="29" width="1" height="1" fill="#636EFF" />
<rect x="5" y="29" width="1" height="1" fill="#636EFF" />
<rect x="8" y="29" width="2" height="1" fill="#F58414" />
<rect x="11" y="29" width="1" height="1" fill="#636EFF" />
<rect x="20" y="29" width="1" height="1" fill="#636EFF" />
<rect x="22" y="29" width="2" height="1" fill="#F58414" />
<rect x="26" y="29" width="1" height="1" fill="#636EFF" />
<rect x="29" y="29" width="1" height="1" fill="#636EFF" />
<rect x="2" y="30" width="28" height="2" fill="#6358FF" />
</svg>