<?xml version="1.0" encoding="UTF-8" ?>
<svg version="1.1" width="32" height="32" xmlns="http://www.w3.org/2000/svg" shape-rendering="crispEdges">
<rect x="0" y="0" width="32" height="2" fill="#6358FF" />
<rect x="0" y="2" width="2" height="30" fill="#6358FF" />
<rect x="2" y="2" width="1" height="1" fill="#636EFF" />
<rect x="3" y="2" width="4" height="1" fill="#F9FFFF" />
<rect x="7" y="2" width="1" height="1" fill="#F7E5CD" />
<rect x="8" y="2" width="15" height="1" fill="#636EFF" />
<rect x="23" y="2" width="4" height="1" fill="#F9FFFF" />
<rect x="27" y="2" width="1" height="1" fill="#F7E5CD" />
<rect x="28" y="2" width="2" height="1" fill="#636EFF" />
<rect x="30" y="2" width="2" height="30" fill="#6358FF" />
<rect x="2" y="3" width="2" height="1" fill="#F9FFFF" />
<rect x="4" y="3" width="2" height="4" fill="#FFFFFF" />
<rect x="6" y="3" width="2" height="1" fill="#F9FFFF" />
<rect x="8" y="3" width="1" height="1" fill="#F7E5CD" />
<rect x="9" y="3" width="13" height="1" fill="#636EFF" />
<rect x="22" y="3" width="2" height="1" fill="#F9FFFF" />
<rect x="24" y="3" width="2" height="4" fill="#FFFFFF" />
<rect x="26" y="3" width="2" height="1" fill="#F9FFFF" />
<rect x="28" y="3" width="1" height="1" fill="#F7E5CD" />
<rect x="29" y="3" width="1" height="1" fill="#636EFF" />
<rect x="2" y="4" width="1" height="3" fill="#F9FFFF" />
<rect x="3" y="4" width="1" height="2" fill="#FFFFFF" />
<rect x="6" y="4" width="1" height="2" fill="#FFFFFF" />
<rect x="7" y="4" width="2" height="3" fill="#F9FFFF" />
<rect x="9" y="4" width="1" height="4" fill="#F7E5CD" />
<rect x="10" y="4" width="12" height="2" fill="#6382FF" />
<rect x="22" y="4" width="1" height="3" fill="#F9FFFF" />
<rect x="23" y="4" width="1" height="2" fill="#FFFFFF" />
<rect x="26" y="4" width="1" height="2" fill="#FFFFFF" />
<rect x="27" y="4" width="2" height="3" fill="#F9FFFF" />
<rect x="29" y="4" width="1" height="4" fill="#F7E5CD" />
<rect x="3" y="6" width="1" height="2" fill="#F9FFFF" />
<rect x="6" y="6" width="1" height="3" fill="#F9FFFF" />
<rect x="10" y="6" width="12" height="2" fill="#639DFF" />
<rect x="23" y="6" width="1" height="2" fill="#F9FFFF" />
<rect x="26" y="6" width="1" height="3" fill="#F9FFFF" />
<rect x="2" y="7" width="1" height="1" fill="#F7E5CD" />
<rect x="4" y="7" width="2" height="2" fill="#F9FFFF" />
<rect x="7" y="7" width="1" height="1" fill="#F9FFFF" />
<rect x="8" y="7" width="1" height="2" fill="#F7E5CD" />
<rect x="22" y="7" width="1" height="1" fill="#F7E5CD" />
<rect x="24" y="7" width="2" height="2" fill="#F9FFFF" />
<rect x="27" y="7" width="1" height="1" fill="#F9FFFF" />
<rect x="28" y="7" width="1" height="2" fill="#F7E5CD" />
<rect x="2" y="8" width="1" height="15" fill="#636EFF" />
<rect x="3" y="8" width="1" height="1" fill="#F7E5CD" />
<rect x="7" y="8" width="1" height="2" fill="#F7E5CD" />
<rect x="9" y="8" width="14" height="3" fill="#63AFFF" />
<rect x="23" y="8" width="1" height="1" fill="#F7E5CD" />
<rect x="27" y="8" width="1" height="2" fill="#F7E5CD" />
<rect x="29" y="8" width="1" height="16" fill="#636EFF" />
<rect x="3" y="9" width="1" height="13" fill="#636EFF" />
<rect x="4" y="9" width="3" height="1" fill="#F7E5CD" />
<rect x="8" y="9" width="1" height="14" fill="#63AFFF" />
<rect x="23" y="9" width="1" height="13" fill="#63AFFF" />
<rect x="24" y="9" width="3" height="1" fill="#F7E5CD" />
<rect x="28" y="9" width="1" height="14" fill="#636EFF" />
<rect x="4" y="10" width="2" height="12" fill="#6382FF" />
<rect x="6" y="10" width="2" height="12" fill="#639DFF" />
<rect x="24" y="10" width="2" height="12" fill="#639DFF" />
<rect x="26" y="10" width="2" height="12" fill="#6382FF" />
<rect x="9" y="11" width="4" height="1" fill="#63AFFF" />
<rect x="13" y="11" width="4" height="1" fill="#F9FFFF" />
<rect x="17" y="11" width="1" height="1" fill="#F7E5CD" />
<rect x="18" y="11" width="5" height="1" fill="#63AFFF" />
<rect x="9" y="12" width="3" height="12" fill="#63AFFF" />
<rect x="12" y="12" width="2" height="1" fill="#F9FFFF" />
<rect x="14" y="12" width="2" height="4" fill="#FFFFFF" />
<rect x="16" y="12" width="2" height="1" fill="#F9FFFF" />
<rect x="18" y="12" width="1" height="1" fill="#F7E5CD" />
<rect x="19" y="12" width="4" height="1" fill="#63AFFF" />
<rect x="12" y="13" width="1" height="3" fill="#F9FFFF" />
<rect x="13" y="13" width="1" height="2" fill="#FFFFFF" />
<rect x="16" y="13" width="1" height="2" fill="#FFFFFF" />
<rect x="17" y="13" width="2" height="3" fill="#F9FFFF" />
<rect x="19" y="13" width="1" height="4" fill="#F7E5CD" />
<rect x="20" y="13" width="3" height="10" fill="#63AFFF" />
<rect x="13" y="15" width="1" height="2" fill="#F9FFFF" />
<rect x="16" y="15" width="1" height="3" fill="#F9FFFF" />
<rect x="12" y="16" width="1" height="1" fill="#F7E5CD" />
<rect x="14" y="16" width="2" height="2" fill="#F9FFFF" />
<rect x="17" y="16" width="1" height="1" fill="#F9FFFF" />
<rect x="18" y="16" width="1" height="2" fill="#F7E5CD" />
<rect x="12" y="17" width="1" height="7" fill="#63AFFF" />
<rect x="13" y="17" width="1" height="1" fill="#F7E5CD" />
<rect x="17" y="17" width="1" height="2" fill="#F7E5CD" />
<rect x="19" y="17" width="1" height="7" fill="#63AFFF" />
<rect x="13" y="18" width="1" height="6" fill="#63AFFF" />
<rect x="14" y="18" width="3" height="1" fill="#F7E5CD" />
<rect x="18" y="18" width="1" height="6" fill="#63AFFF" />
<rect x="14" y="19" width="4" height="5" fill="#63AFFF" />
<rect x="3" y="22" width="4" height="1" fill="#F9FFFF" />
<rect x="7" y="22" width="1" height="1" fill="#F7E5CD" />
<rect x="23" y="22" width="4" height="1" fill="#F9FFFF" />
<rect x="27" y="22" width="1" height="1" fill="#F7E5CD" />
<rect x="2" y="23" width="2" height="1" fill="#F9FFFF" />
<rect x="4" y="23" width="2" height="4" fill="#FFFFFF" />
<rect x="6" y="23" width="2" height="1" fill="#F9FFFF" />
<rect x="8" y="23" width="1" height="1" fill="#F7E5CD" />
<rect x="20" y="23" width="2" height="1" fill="#63AFFF" />
<rect x="22" y="23" width="2" height="1" fill="#F9FFFF" />
<rect x="24" y="23" width="2" height="4" fill="#FFFFFF" />
<rect x="26" y="23" width="2" height="1" fill="#F9FFFF" />
<rect x="28" y="23" width="1" height="1" fill="#F7E5CD" />
<rect x="2" y="24" width="1" height="3" fill="#F9FFFF" />
<rect x="3" y="24" width="1" height="2" fill="#FFFFFF" />
<rect x="6" y="24" width="1" height="2" fill="#FFFFFF" />
<rect x="7" y="24" width="2" height="3" fill="#F9FFFF" />
<rect x="9" y="24" width="1" height="4" fill="#F7E5CD" />
<rect x="10" y="24" width="12" height="2" fill="#639DFF" />
<rect x="22" y="24" width="1" height="3" fill="#F9FFFF" />
<rect x="23" y="24" width="1" height="2" fill="#FFFFFF" />
<rect x="26" y="24" width="1" height="2" fill="#FFFFFF" />
<rect x="27" y="24" width="2" height="3" fill="#F9FFFF" />
<rect x="29" y="24" width="1" height="4" fill="#F7E5CD" />
<rect x="3" y="26" width="1" height="2" fill="#F9FFFF" />
<rect x="6" y="26" width="1" height="3" fill="#F9FFFF" />
<rect x="10" y="26" width="12" height="2" fill="#6382FF" />
<rect x="23" y="26" width="1" height="2" fill="#F9FFFF" />
<rect x="26" y="26" width="1" height="3" fill="#F9FFFF" />
<rect x="2" y="27" width="1" height="1" fill="#F7E5CD" />
<rect x="4" y="27" width="2" height="2" fill="#F9FFFF" />
<rect x="7" y="27" width="1" height="1" fill="#F9FFFF" />
<rect x="8" y="27" width="1" height="2" fill="#F7E5CD" />
<rect x="22" y="27" width="1" height="1" fill="#F7E5CD" />
<rect x="24" y="27" width="2" height="2" fill="#F9FFFF" />
<rect x="27" y="27" width="1" height="1" fill="#F9FFFF" />
<rect x="28" y="27" width="1" height="2" fill="#F7E5CD" />
<rect x="2" y="28" width="1" height="2" fill="#636EFF" />
<rect x="3" y="28" width="1" height="1" fill="#F7E5CD" />
<rect x="7" y="28" width="1" height="2" fill="#F7E5CD" />
<rect x="9" y="28" width="14" height="2" fill="#636EFF" />
<rect x="23" y="28" width="1" height="1" fill="#F7E5CD" />
<rect x="27" y="28" width="1" height="2" fill="#F7E5CD" />
<rect x="29" y="28" width="1" height="2" fill="#636EFF" />
<rect x="3" y="29" width="1" height="1" fill="#636EFF" />
<rect x="4" y="29" width="3" height="1" fill="#F7E5CD" />
<rect x="8" y="29" width="1" height="1" fill="#636EFF" />
<rect x="23" y="29" width="1" height="1" fill="#636EFF" />
<rect x="24" y="29" width="3" height="1" fill="#F7E5CD" />
<rect x="28" y="29" width="1" height="1" fill="#636EFF" />
<rect x="2" y="30" width="28" height="2" fill="#6358FF" />
</svg>