<?xml version="1.0" encoding="UTF-8" ?>
<svg version="1.1" width="32" height="32" xmlns="http://www.w3.org/2000/svg" shape-rendering="crispEdges">
<rect x="0" y="0" width="28" height="32" fill="#EED26C" />
<rect x="28" y="0" width="4" height="1" fill="#5E6FD5" />
<rect x="28" y="1" width="1" height="15" fill="#EED26C" />
<rect x="29" y="1" width="3" height="1" fill="#5E6FD5" />
<rect x="29" y="2" width="1" height="14" fill="#EED26C" />
<rect x="30" y="2" width="2" height="2" fill="#5E6FD5" />
<rect x="30" y="4" width="1" height="11" fill="#EED26C" />
<rect x="31" y="4" width="1" height="4" fill="#5E6FD5" />
<rect x="31" y="8" width="1" height="3" fill="#EED26C" />
<rect x="31" y="11" width="1" height="13" fill="#5E6FD5" />
<rect x="30" y="15" width="1" height="8" fill="#5E6FD5" />
<rect x="28" y="16" width="2" height="1" fill="#5E6FD5" />
<rect x="28" y="17" width="1" height="15" fill="#EED26C" />
<rect x="29" y="17" width="1" height="1" fill="#5E6FD5" />
<rect x="29" y="18" width="1" height="13" fill="#EED26C" />
<rect x="30" y="23" width="1" height="3" fill="#EED26C" />
<rect x="31" y="24" width="1" height="1" fill="#EED26C" />
<rect x="31" y="25" width="1" height="7" fill="#5E6FD5" />
<rect x="30" y="26" width="1" height="1" fill="#5E6FD5" />
<rect x="30" y="27" width="1" height="1" fill="#EED26C" />
<rect x="30" y="28" width="1" height="1" fill="#5E6FD5" />
<rect x="30" y="29" width="1" height="1" fill="#EED26C" />
<rect x="30" y="30" width="1" height="2" fill="#5E6FD5" />
<rect x="29" y="31" width="1" height="1" fill="#5E6FD5" />
</svg>