<?xml version="1.0" encoding="UTF-8" ?>
<svg version="1.1" width="32" height="32" xmlns="http://www.w3.org/2000/svg" shape-rendering="crispEdges">
<rect x="19" y="0" width="9" height="1" fill="#000000" />
<rect x="18" y="1" width="1" height="1" fill="#000000" />
<rect x="19" y="1" width="3" height="1" fill="#FFFFFF" />
<rect x="22" y="1" width="1" height="1" fill="#000000" />
<rect x="23" y="1" width="2" height="1" fill="#FFFFFF" />
<rect x="25" y="1" width="1" height="1" fill="#000000" />
<rect x="26" y="1" width="2" height="1" fill="#FFFFFF" />
<rect x="28" y="1" width="1" height="1" fill="#000000" />
<rect x="17" y="2" width="1" height="1" fill="#000000" />
<rect x="18" y="2" width="3" height="1" fill="#FFFFFF" />
<rect x="21" y="2" width="1" height="1" fill="#000000" />
<rect x="22" y="2" width="2" height="1" fill="#FFFFFF" />
<rect x="24" y="2" width="1" height="1" fill="#000000" />
<rect x="25" y="2" width="2" height="1" fill="#FFFFFF" />
<rect x="27" y="2" width="1" height="1" fill="#000000" />
<rect x="16" y="3" width="1" height="1" fill="#000000" />
<rect x="17" y="3" width="3" height="1" fill="#FFFFFF" />
<rect x="20" y="3" width="1" height="1" fill="#000000" />
<rect x="21" y="3" width="2" height="1" fill="#FFFFFF" />
<rect x="23" y="3" width="1" height="1" fill="#000000" />
<rect x="24" y="3" width="2" height="2" fill="#FFFFFF" />
<rect x="26" y="3" width="1" height="3" fill="#000000" />
<rect x="6" y="4" width="8" height="1" fill="#BBA509" />
<rect x="15" y="4" width="1" height="2" fill="#000000" />
<rect x="16" y="4" width="3" height="2" fill="#FFFFFF" />
<rect x="19" y="4" width="1" height="2" fill="#000000" />
<rect x="20" y="4" width="2" height="2" fill="#FFFFFF" />
<rect x="22" y="4" width="1" height="2" fill="#000000" />
<rect x="23" y="4" width="1" height="4" fill="#FFFFFF" />
<rect x="6" y="5" width="1" height="1" fill="#BBA509" />
<rect x="7" y="5" width="6" height="3" fill="#FFDF00" />
<rect x="13" y="5" width="1" height="1" fill="#BBA509" />
<rect x="24" y="5" width="1" height="2" fill="#FFFFFF" />
<rect x="25" y="5" width="1" height="2" fill="#000000" />
<rect x="4" y="6" width="2" height="1" fill="#BBA509" />
<rect x="6" y="6" width="1" height="12" fill="#FFDF00" />
<rect x="13" y="6" width="1" height="8" fill="#FFDF00" />
<rect x="14" y="6" width="1" height="1" fill="#000000" />
<rect x="15" y="6" width="1" height="2" fill="#BBA509" />
<rect x="16" y="6" width="2" height="2" fill="#FFFFFF" />
<rect x="18" y="6" width="1" height="1" fill="#000000" />
<rect x="19" y="6" width="2" height="2" fill="#FFFFFF" />
<rect x="21" y="6" width="1" height="1" fill="#000000" />
<rect x="22" y="6" width="1" height="3" fill="#FFFFFF" />
<rect x="4" y="7" width="1" height="1" fill="#BBA509" />
<rect x="5" y="7" width="1" height="13" fill="#FFDF00" />
<rect x="14" y="7" width="1" height="8" fill="#FFDF00" />
<rect x="18" y="7" width="1" height="1" fill="#FFFFFF" />
<rect x="21" y="7" width="1" height="2" fill="#FFFFFF" />
<rect x="24" y="7" width="1" height="1" fill="#000000" />
<rect x="2" y="8" width="2" height="1" fill="#BBA509" />
<rect x="4" y="8" width="1" height="12" fill="#FFDF00" />
<rect x="7" y="8" width="1" height="10" fill="#FFDF00" />
<rect x="8" y="8" width="2" height="2" fill="#000000" />
<rect x="10" y="8" width="3" height="2" fill="#FFDF00" />
<rect x="15" y="8" width="1" height="7" fill="#FFDF00" />
<rect x="16" y="8" width="4" height="1" fill="#BBA509" />
<rect x="20" y="8" width="1" height="2" fill="#FFFFFF" />
<rect x="23" y="8" width="1" height="1" fill="#000000" />
<rect x="2" y="9" width="1" height="1" fill="#BBA509" />
<rect x="3" y="9" width="1" height="5" fill="#FFDF00" />
<rect x="16" y="9" width="3" height="7" fill="#FFDF00" />
<rect x="19" y="9" width="1" height="1" fill="#BBA509" />
<rect x="21" y="9" width="2" height="1" fill="#000000" />
<rect x="0" y="10" width="2" height="1" fill="#BBA509" />
<rect x="2" y="10" width="1" height="4" fill="#FFDF00" />
<rect x="8" y="10" width="2" height="15" fill="#FFDF00" />
<rect x="10" y="10" width="2" height="2" fill="#000000" />
<rect x="12" y="10" width="1" height="4" fill="#FFDF00" />
<rect x="19" y="10" width="1" height="10" fill="#FFDF00" />
<rect x="20" y="10" width="1" height="1" fill="#BBA509" />
<rect x="21" y="10" width="1" height="1" fill="#000000" />
<rect x="28" y="10" width="4" height="1" fill="#BBA509" />
<rect x="0" y="11" width="2" height="5" fill="#FFDF00" />
<rect x="20" y="11" width="1" height="9" fill="#FFDF00" />
<rect x="21" y="11" width="1" height="1" fill="#BBA509" />
<rect x="27" y="11" width="1" height="1" fill="#BBA509" />
<rect x="28" y="11" width="3" height="2" fill="#FFDF00" />
<rect x="31" y="11" width="1" height="3" fill="#BBA509" />
<rect x="10" y="12" width="2" height="13" fill="#FFDF00" />
<rect x="21" y="12" width="1" height="7" fill="#FFDF00" />
<rect x="22" y="12" width="2" height="1" fill="#BBA509" />
<rect x="26" y="12" width="1" height="2" fill="#BBA509" />
<rect x="27" y="12" width="1" height="1" fill="#FFDF00" />
<rect x="22" y="13" width="1" height="5" fill="#FFDF00" />
<rect x="23" y="13" width="1" height="1" fill="#BBA509" />
<rect x="27" y="13" width="4" height="1" fill="#BBA509" />
<rect x="2" y="14" width="2" height="2" fill="#000000" />
<rect x="12" y="14" width="2" height="1" fill="#BBA509" />
<rect x="23" y="14" width="1" height="2" fill="#FFDF00" />
<rect x="24" y="14" width="2" height="2" fill="#BBA509" />
<rect x="12" y="15" width="2" height="4" fill="#FFDF00" />
<rect x="14" y="15" width="2" height="1" fill="#BBA509" />
<rect x="0" y="16" width="2" height="2" fill="#000000" />
<rect x="2" y="16" width="2" height="2" fill="#FFDF00" />
<rect x="14" y="16" width="2" height="3" fill="#FFDF00" />
<rect x="16" y="16" width="1" height="3" fill="#BBA509" />
<rect x="17" y="16" width="2" height="5" fill="#FFDF00" />
<rect x="23" y="16" width="1" height="2" fill="#BBA509" />
<rect x="26" y="16" width="6" height="1" fill="#BBA509" />
<rect x="26" y="17" width="1" height="1" fill="#BBA509" />
<rect x="27" y="17" width="4" height="1" fill="#FFDF00" />
<rect x="31" y="17" width="1" height="3" fill="#BBA509" />
<rect x="0" y="18" width="2" height="5" fill="#FFDF00" />
<rect x="2" y="18" width="2" height="2" fill="#000000" />
<rect x="6" y="18" width="2" height="2" fill="#000000" />
<rect x="22" y="18" width="1" height="1" fill="#BBA509" />
<rect x="27" y="18" width="1" height="2" fill="#BBA509" />
<rect x="28" y="18" width="3" height="1" fill="#FFDF00" />
<rect x="12" y="19" width="4" height="1" fill="#BBA509" />
<rect x="16" y="19" width="1" height="3" fill="#FFDF00" />
<rect x="21" y="19" width="1" height="1" fill="#BBA509" />
<rect x="28" y="19" width="3" height="1" fill="#BBA509" />
<rect x="2" y="20" width="2" height="3" fill="#FFDF00" />
<rect x="4" y="20" width="2" height="2" fill="#000000" />
<rect x="6" y="20" width="2" height="4" fill="#FFDF00" />
<rect x="12" y="20" width="4" height="3" fill="#FFDF00" />
<rect x="19" y="20" width="2" height="1" fill="#BBA509" />
<rect x="17" y="21" width="2" height="1" fill="#BBA509" />
<rect x="4" y="22" width="2" height="1" fill="#FFDF00" />
<rect x="16" y="22" width="1" height="1" fill="#BBA509" />
<rect x="0" y="23" width="6" height="1" fill="#BBA509" />
<rect x="12" y="23" width="2" height="1" fill="#FFDF00" />
<rect x="14" y="23" width="2" height="1" fill="#BBA509" />
<rect x="6" y="24" width="1" height="2" fill="#BBA509" />
<rect x="7" y="24" width="1" height="1" fill="#FFDF00" />
<rect x="12" y="24" width="1" height="1" fill="#FFDF00" />
<rect x="13" y="24" width="1" height="2" fill="#BBA509" />
<rect x="7" y="25" width="6" height="1" fill="#BBA509" />
</svg>