<?xml version="1.0" encoding="UTF-8" ?>
<svg version="1.1" width="8" height="8" xmlns="http://www.w3.org/2000/svg" shape-rendering="crispEdges">
<rect x="1" y="0" width="4" height="1" fill="#F9FFFF" />
<rect x="5" y="0" width="1" height="1" fill="#F7E5CD" />
<rect x="0" y="1" width="2" height="1" fill="#F9FFFF" />
<rect x="2" y="1" width="2" height="4" fill="#FFFFFF" />
<rect x="4" y="1" width="2" height="1" fill="#F9FFFF" />
<rect x="6" y="1" width="1" height="1" fill="#F7E5CD" />
<rect x="0" y="2" width="1" height="3" fill="#F9FFFF" />
<rect x="1" y="2" width="1" height="2" fill="#FFFFFF" />
<rect x="4" y="2" width="1" height="2" fill="#FFFFFF" />
<rect x="5" y="2" width="2" height="3" fill="#F9FFFF" />
<rect x="7" y="2" width="1" height="4" fill="#F7E5CD" />
<rect x="1" y="4" width="1" height="2" fill="#F9FFFF" />
<rect x="4" y="4" width="1" height="3" fill="#F9FFFF" />
<rect x="0" y="5" width="1" height="1" fill="#F7E5CD" />
<rect x="2" y="5" width="2" height="2" fill="#F9FFFF" />
<rect x="5" y="5" width="1" height="1" fill="#F9FFFF" />
<rect x="6" y="5" width="1" height="2" fill="#F7E5CD" />
<rect x="1" y="6" width="1" height="1" fill="#F7E5CD" />
<rect x="5" y="6" width="1" height="2" fill="#F7E5CD" />
<rect x="2" y="7" width="3" height="1" fill="#F7E5CD" />
</svg>